<?xml version="1.0" standalone="no"?><!DOCTYPE svg PUBLIC "-//W3C//DTD SVG 1.1//EN" "http://www.w3.org/Graphics/SVG/1.1/DTD/svg11.dtd"><svg t="1522832954906" class="icon" style="" viewBox="0 0 1024 1024" version="1.1" xmlns="http://www.w3.org/2000/svg" p-id="29041" xmlns:xlink="http://www.w3.org/1999/xlink" width="200" height="200"><defs><style type="text/css"></style></defs><path d="M113.778 398.222H967.11v512H113.778v-512z m56.889 455.111h739.555V455.111H170.667v398.222zM341.333 256h-56.889c0-142.222 113.778-256 256-256s256 113.778 256 256h-56.888c0-108.089-91.023-199.111-199.112-199.111S341.334 147.91 341.334 256z m-56.889 0c0-142.222 113.778-256 256-256s256 113.778 256 256h-56.888c0-108.089-91.023-199.111-199.112-199.111S341.334 147.91 341.334 256h-56.89z"  p-id="29042"></path><path d="M284.444 227.556h56.89v170.666h-56.89z m256 341.333c17.067 0 28.445 11.378 28.445 28.444s-11.378 28.445-28.445 28.445S512 614.4 512 597.333s11.378-28.444 28.444-28.444m0-56.889c-45.51 0-85.333 39.822-85.333 85.333s39.822 85.334 85.333 85.334 85.334-39.823 85.334-85.334S585.956 512 540.444 512z"  p-id="29043"></path><path d="M512 625.778h56.889v170.666H512z"  p-id="29044"></path></svg>