<?xml version="1.0" standalone="no"?><!DOCTYPE svg PUBLIC "-//W3C//DTD SVG 1.1//EN" "http://www.w3.org/Graphics/SVG/1.1/DTD/svg11.dtd"><svg t="1523270402149" class="icon" style="" viewBox="0 0 1024 1024" version="1.1" xmlns="http://www.w3.org/2000/svg" p-id="8853" xmlns:xlink="http://www.w3.org/1999/xlink" width="16" height="16"><defs><style type="text/css"></style></defs><path d="M175.773817 493.301126l659.299811 0c50.340525 0 91.153046-40.811498 91.153046-91.15407L926.226674 176.794565c0-50.340525-40.812521-91.153046-91.153046-91.153046L175.773817 85.641519c-50.341548 0-91.15407 40.812521-91.15407 91.153046l0 225.353514C84.620771 452.489628 125.433292 493.301126 175.773817 493.301126zM137.222803 176.794565c0-21.291932 17.260106-38.552038 38.552038-38.552038l659.299811 0c21.292955 0 38.553061 17.260106 38.553061 38.552038l0 225.353514c0 21.292955-17.260106 38.552038-38.553061 38.552038L175.773817 440.700117c-21.291932 0-38.552038-17.260106-38.552038-38.552038L137.22178 176.794565zM189.822788 296.046576c7.243985 0 13.150508-5.881964 13.150508-13.150508l0-23.693632c0-20.675902 6.54916-42.058908 25.761734-42.058908l87.63492 0c7.268544 0 13.150508-5.880941 13.150508-13.150508 0-7.268544-5.881964-13.149485-13.150508-13.149485l-87.63492 0c-35.674501 0-52.061726 34.750455-52.061726 68.357877l0 23.693632C176.673304 290.164612 182.554244 296.046576 189.822788 296.046576zM179.216219 341.147774c3.415796 0 6.702656-1.451048 9.348925-3.942799 2.362814-2.362814 3.801583-5.791913 3.801583-9.207709 0-3.415796-1.438769-6.832615-3.929496-9.336646-4.880147-4.866844-13.560854-4.995781-18.544355 0-2.51631 2.50403-3.826142 5.92085-3.826142 9.336646 0 3.415796 1.309832 6.844895 3.826142 9.336646C172.383604 339.696726 175.7994 341.147774 179.216219 341.147774zM558.917054 532.751626 175.773817 532.751626c-50.341548 0-91.15407 40.812521-91.15407 91.153046l0 225.353514c0 50.334385 40.812521 91.145883 91.15407 91.145883l383.143237 0c50.341548 0 91.153046-40.811498 91.153046-91.145883L650.0701 623.905696C650.071124 573.564148 609.259626 532.751626 558.917054 532.751626zM597.470115 849.258187c0 21.292955-17.260106 38.545898-38.553061 38.545898L175.773817 887.804085c-21.291932 0-38.552038-17.252943-38.552038-38.545898L137.22178 623.905696c0-21.291932 17.260106-38.553061 38.552038-38.553061l383.143237 0c21.292955 0 38.553061 17.261129 38.553061 38.553061L597.470115 849.258187zM848.225159 532.751626l-67.550489 0c-50.340525 0-91.153046 40.812521-91.153046 91.153046l0 225.353514c0 50.334385 40.812521 91.145883 91.153046 91.145883l67.550489 0c50.340525 0 91.152023-40.811498 91.152023-91.145883L939.377182 623.905696C939.377182 573.564148 898.566708 532.751626 848.225159 532.751626zM886.776174 849.258187c0 21.292955-17.259082 38.545898-38.551014 38.545898l-67.550489 0c-21.292955 0-38.552038-17.252943-38.552038-38.545898L742.122633 623.905696c0-21.291932 17.259082-38.553061 38.552038-38.553061l67.550489 0c21.291932 0 38.551014 17.261129 38.551014 38.553061L886.776174 849.258187z" p-id="8854"></path></svg>