<?xml version="1.0" standalone="no"?><!DOCTYPE svg PUBLIC "-//W3C//DTD SVG 1.1//EN" "http://www.w3.org/Graphics/SVG/1.1/DTD/svg11.dtd"><svg t="1522824808753" class="icon" style="" viewBox="0 0 1024 1024" version="1.1" xmlns="http://www.w3.org/2000/svg" p-id="11103" xmlns:xlink="http://www.w3.org/1999/xlink" width="200" height="200"><defs><style type="text/css"></style></defs><path d="M40.005185 1020.790035c-22.402254 0-35.199613-12.803609-35.199613-28.798434 0-252.800973 89.599016-384.000781 281.598156-467.197367l3.198715 3.197465 0 0C228.801861 467.197367 200.003428 393.594426 200.003428 310.39659 200.003428 140.799703 334.401951 0 507.202553 0c169.598137 0 310.39159 134.398523 310.39159 307.199125 0 41.595793-9.598645 86.395301-25.594719 121.594914-12.802359 35.199613-35.199613 63.998047-64.003047 92.80148L724.797662 524.794234l3.198715 3.197465c15.999824 6.40243 28.803434 12.803609 41.600793 19.204789 6.40118 3.197465 12.797359 6.39618 16.001074 9.598645 3.197465 3.198715 12.797359 9.599895 12.797359 19.199789 0 6.40118 0 12.797359-3.198715 22.397254-6.40118 9.598645-12.802359 16.001074-28.798434 19.198539l0 0c-3.202465 0-9.598645-3.197465-16.001074-6.39618-25.599719-12.802359-51.199438-28.798434-86.400301-41.600793-51.200687 28.798434-105.59884 41.600793-159.998242 41.600793-54.398152 0-95.998945-12.802359-147.194633-38.403328C139.204096 649.592863 81.605978 796.792496 84.804693 979.187992c0 32.002148-22.402254 38.398328-44.799508 38.398328l0 0L40.005185 1020.790035zM500.801373 67.201762c-134.398523 0-246.398543 111.99502-246.398543 243.194828 0 134.398523 108.797555 243.196078 246.398543 243.196078 63.998047 0 127.996094-25.600969 169.596887-67.196762C695.999229 460.796188 712.000303 435.195219 724.797662 409.5955c12.797359-28.798434 22.402254-60.800582 22.402254-99.19891C747.199916 179.196781 635.198646 67.201762 500.801373 67.201762L500.801373 67.201762 500.801373 67.201762zM500.801373 67.201762M830.396502 1023.9875c-15.999824 0-35.199613-16.001074-35.199613-35.199613l0-115.198734-115.198734 0c-16.001074 0-35.199613-16.001074-35.199613-35.199613 0-15.996074 16.001074-35.199613 35.199613-35.199613l118.397449 0 0-115.199984c0-15.994824 16.001074-35.199613 35.199613-35.199613 16.001074 0 35.199613 16.001074 35.199613 35.199613l0 118.402449 115.198734 0c16.001074 0 35.200863 16.001074 35.200863 35.199613 0 15.996074-16.001074 35.199613-35.200863 35.199613l-115.198734 0 0 115.199984C865.597365 1011.190141 849.596291 1023.9875 830.396502 1023.9875L830.396502 1023.9875 830.396502 1023.9875zM830.396502 1023.9875" p-id="11104"></path></svg>