<?xml version="1.0" standalone="no"?><!DOCTYPE svg PUBLIC "-//W3C//DTD SVG 1.1//EN" "http://www.w3.org/Graphics/SVG/1.1/DTD/svg11.dtd"><svg t="1522823428665" class="icon" style="" viewBox="0 0 1024 1024" version="1.1" xmlns="http://www.w3.org/2000/svg" p-id="1418" xmlns:xlink="http://www.w3.org/1999/xlink" width="200" height="200"><defs><style type="text/css"></style></defs><path d="M929.021 815H815v114.021A29.979 29.979 0 0 1 785.021 959h-0.042A29.979 29.979 0 0 1 755 929.021V815H640.979A29.979 29.979 0 0 1 611 785.021v-0.042A29.979 29.979 0 0 1 640.979 755H755V640.979A29.979 29.979 0 0 1 784.979 611h0.042A29.979 29.979 0 0 1 815 640.979V755h114.021A29.979 29.979 0 0 1 959 784.979v0.042A29.979 29.979 0 0 1 929.021 815zM845 482a30 30 0 0 1-30-30V205a20 20 0 0 0-20-20h-63a30 30 0 0 1 0-60h93a50 50 0 0 1 50 50v277a30 30 0 0 1-30 30z m-121-85.021v0.011a29.979 29.979 0 0 1-29.979 29.979H245.979A29.979 29.979 0 0 1 216 396.99v-0.011A29.979 29.979 0 0 1 245.979 367h448.042A29.979 29.979 0 0 1 724 396.979zM560 245H380a90 90 0 0 1 0-180h180a90 90 0 0 1 0 180z m0-120H380a30 30 0 0 0 0 60h180a30 30 0 0 0 0-60z m-352 60h-63a20 20 0 0 0-20 20v674a20 20 0 0 0 20 20h411a30 30 0 0 1 0 60H115a50 50 0 0 1-50-50V175a50 50 0 0 1 50-50h93a30 30 0 0 1 0 60z m37.979 472.031h221.23a29.978 29.978 0 0 1 29.978 29.979v0.011A29.978 29.978 0 0 1 467.209 717h-221.23A29.979 29.979 0 0 1 216 687.021v-0.011a29.979 29.979 0 0 1 29.979-29.979z m0-85.031A29.979 29.979 0 0 1 216 542.021v-0.042A29.979 29.979 0 0 1 245.979 512h335.042A29.979 29.979 0 0 1 611 541.979v0.042A29.979 29.979 0 0 1 581.021 572H245.979z"  p-id="1419"></path></svg>