<?xml version="1.0" standalone="no"?><!DOCTYPE svg PUBLIC "-//W3C//DTD SVG 1.1//EN" "http://www.w3.org/Graphics/SVG/1.1/DTD/svg11.dtd"><svg t="1512958479846" class="icon" style="" viewBox="0 0 1024 1024" version="1.1" xmlns="http://www.w3.org/2000/svg" p-id="1602" xmlns:xlink="http://www.w3.org/1999/xlink" width="200" height="200"><defs><style type="text/css"></style></defs><path d="M211.002 186.561S318.787 81.38 501.245 81.38c185.731 0 292.19 99.337 292.19 99.337l0.648 208.429 32.116 0.24-0.943-220.802S690.327 49.676 487.932 52.511c-202.391 2.831-311.369 118.885-311.369 118.885l-4.246 217.96 38.036 0.441 0.649-203.236zM632.304 702.147c157.098-55.196 177.624-274.571 177.624-274.571l-35.485-0.118S749.12 699.683 495.888 698.222c-233.323-1.348-266.38-272.225-266.38-272.225l-32.419 0.16c15.804 125.501 78.549 236.72 162.056 270.687C87.391 783.185 74.654 980.977 74.654 980.977l37.329-0.145s59.328-261.876 376.926-259.235c350.303 2.922 418.481 260.05 418.481 260.05s-24.577 0.737 39.119 0.737c-24.065-175.496-230.699-261.83-314.205-280.237z" p-id="1603"></path><path d="M510.584 500.464c19.921 0 36.087-16.166 36.087-36.086v-89.875h89.875c19.932 0 36.094-16.173 36.094-36.094 0-19.932-16.162-36.094-36.094-36.094h-89.875V212.44c0-19.921-16.166-36.086-36.087-36.086-19.928 0-36.094 16.166-36.094 36.086v89.875h-89.875c-19.929 0-36.094 16.162-36.094 36.094 0 19.921 16.166 36.094 36.094 36.094h89.875v89.875c0 19.92 16.166 36.086 36.094 36.086z" p-id="1604"></path></svg>