<?xml version="1.0" standalone="no"?><!DOCTYPE svg PUBLIC "-//W3C//DTD SVG 1.1//EN" "http://www.w3.org/Graphics/SVG/1.1/DTD/svg11.dtd"><svg t="1522811984243" class="icon" style="" viewBox="0 0 1024 1024" version="1.1" xmlns="http://www.w3.org/2000/svg" p-id="1547" xmlns:xlink="http://www.w3.org/1999/xlink" width="200" height="200"><defs><style type="text/css"></style></defs><path d="M951.168 526.154a30 30 0 0 1-42.427 0c-0.044-0.045-0.081-0.1-0.125-0.14l-0.007 0.007-382.545-382.54a20 20 0 0 0-28.284 0l-382.545 382.54a30 30 0 1 1-42.426-42.426L476.567 79.837a50 50 0 0 1 70.71 0l403.758 403.758-0.006 0.006c0.045 0.045 0.094 0.082 0.139 0.126a30 30 0 0 1 0 42.427z m-770.246 15.877a29.992 29.992 0 0 1 29.987 29.75h0.013v307a20 20 0 0 0 20 20h137v-235a50 50 0 0 1 50-50h188a50 50 0 0 1 50 50v235h137a20 20 0 0 0 20-20V575.836a29.984 29.984 0 1 1 59.656-4.3c0 0.084-0.012 0.166-0.012 0.25h0.356v336.995a50 50 0 0 1-50 50h-227V693.365a20 20 0 0 0-20-20h-128a20 20 0 0 0-20 20v265.416h-227a50 50 0 0 1-50-50v-337h0.013a29.992 29.992 0 0 1 29.987-29.75z"  p-id="1548"></path></svg>