<?xml version="1.0" standalone="no"?><!DOCTYPE svg PUBLIC "-//W3C//DTD SVG 1.1//EN" "http://www.w3.org/Graphics/SVG/1.1/DTD/svg11.dtd"><svg t="1512991334504" class="icon" style="" viewBox="0 0 1024 1024" version="1.1" xmlns="http://www.w3.org/2000/svg" p-id="1865" xmlns:xlink="http://www.w3.org/1999/xlink" width="200" height="200"><defs><style type="text/css"></style></defs><path d="M845.45641 708.923077c-21.005128 0-39.384615 18.379487-39.384615 39.384615v7.876923c0 57.764103-15.753846 70.892308-78.769231 70.892308h78.769231v-49.887179 52.51282h-630.153846 78.76923c-60.389744 0-76.14359-13.128205-78.76923-60.389743V241.558974v36.758975c0-60.389744 10.502564-76.14359 68.266666-78.769231h483.117949c60.389744 0 76.14359 15.753846 76.14359 70.892308v7.876923c0 21.005128 18.379487 39.384615 39.384615 39.384615s39.384615-18.379487 39.384616-39.384615V196.923077c0-44.635897-34.133333-78.769231-78.769231-78.769231H170.666667c-39.384615 2.625641-70.892308 36.758974-70.892308 78.769231v632.779487c2.625641 42.010256 36.758974 76.14359 78.769231 76.14359H808.697436c44.635897 0 78.769231-34.133333 78.769231-78.769231v-78.769231c-2.625641-23.630769-18.379487-39.384615-42.010257-39.384615zM808.697436 196.923077v52.51282-52.51282h-65.641026 65.641026z m-630.153846 0h23.630769-23.630769z m732.553846 286.194872c-2.625641-2.625641-2.625641-2.625641-5.251282-2.625641l-154.912821-154.912821c-15.753846-15.753846-39.384615-15.753846-55.138461 0-15.753846 15.753846-15.753846 39.384615 0 55.138462L787.692308 472.615385H370.215385c-21.005128 0-39.384615 18.379487-39.384616 39.384615s18.379487 39.384615 39.384616 39.384615H787.692308l-89.271795 89.271795c-15.753846 15.753846-15.753846 42.010256 0 57.764103 15.753846 15.753846 39.384615 15.753846 55.138461 0l152.28718-154.912821c2.625641-2.625641 5.251282-2.625641 5.251282-5.251282 7.876923-7.876923 10.502564-18.379487 10.502564-28.882051 2.625641-7.876923-2.625641-18.379487-10.502564-26.25641z" p-id="1866"></path></svg>