<?xml version="1.0" standalone="no"?><!DOCTYPE svg PUBLIC "-//W3C//DTD SVG 1.1//EN" "http://www.w3.org/Graphics/SVG/1.1/DTD/svg11.dtd"><svg t="1522824573895" class="icon" style="" viewBox="0 0 1024 1024" version="1.1" xmlns="http://www.w3.org/2000/svg" p-id="4579" xmlns:xlink="http://www.w3.org/1999/xlink" width="200" height="200"><defs><style type="text/css"></style></defs><path d="M752.3 126.1V77.9h-50v48.2H321.7V77.9h-50v48.2H64v820h896v-820H752.3z m157.7 780H114v-730h157.7v51.8h50v-51.8h380.5v51.8h50v-51.8H910v730z m-436.8-341c11.7 15.4 17.6 34.6 17.6 57.7 0 31.3-11.4 57.7-34.2 79.5-22.8 21.7-51.6 32.6-86.4 32.6-31.4 0-57.5-9.4-78.2-28.1-20.8-18.7-32.6-43-35.5-72.8l43.9-5.9c5 24.9 13.6 42.8 25.8 53.8 12.1 11 26.9 16.5 44.3 16.5 20.7 0 38.1-7.2 52.4-21.5 14.2-14.3 21.4-32.1 21.4-53.2 0-20.2-6.6-36.8-19.8-49.9-13.2-13.1-29.9-19.7-50.3-19.7-8.3 0-18.6 1.6-31 4.9l4.9-38.6c2.9 0.3 5.3 0.5 7.1 0.5 18.7 0 35.6-4.9 50.5-14.6 15-9.8 22.5-24.8 22.5-45.2 0-16.1-5.5-29.5-16.4-40-10.9-10.6-25-15.9-42.2-15.9-17.1 0-31.3 5.4-42.7 16.1-11.4 10.7-18.7 26.9-22 48.3l-43.9-7.8c5.4-29.5 17.6-52.3 36.6-68.5 19-16.2 42.7-24.3 71-24.3 19.5 0 37.5 4.2 54 12.6 16.4 8.4 29 19.8 37.7 34.3 8.7 14.5 13.1 29.9 13.1 46.1 0 15.5-4.2 29.5-12.5 42.2S440.3 527 424 534.5c21 5 37.5 15.2 49.2 30.6z m228.3-184.4c-14.5-7.7-31.3-11.6-50.5-11.6-26 0-47.6 7-64.8 21-17.2 14-30.1 33.9-38.8 59.7-8.7 25.8-13.1 59.9-13.1 102.2 0 67.2 11.8 115.7 35.4 145.5 19.7 24.7 46.8 37.1 81.3 37.1 26.2 0 47.9-7 65.1-21.1 17.2-14.1 30.1-34 38.7-59.8 8.6-25.8 12.9-59.7 12.9-101.7 0-35.5-2.7-63.7-8.1-84.6-5.4-20.9-12.8-38.7-22.2-53.2-9.5-14.6-21.5-25.7-35.9-33.5z m0.3 288.5c-13.8 19.5-30.7 29.3-50.9 29.3s-37.2-9.7-50.9-29.2c-13.8-19.4-20.6-58.6-20.6-117.3 0-58.8 7.6-99 22.7-120.8 12-17.1 28.2-25.6 48.3-25.6 20.5 0 37.6 9.7 51.4 29.1 13.8 19.4 20.6 58.5 20.6 117.4 0 58.5-6.8 97.6-20.6 117.1z"  p-id="4580"></path></svg>