<?xml version="1.0" standalone="no"?><!DOCTYPE svg PUBLIC "-//W3C//DTD SVG 1.1//EN" "http://www.w3.org/Graphics/SVG/1.1/DTD/svg11.dtd"><svg t="1522824111601" class="icon" style="" viewBox="0 0 1024 1024" version="1.1" xmlns="http://www.w3.org/2000/svg" p-id="3667" xmlns:xlink="http://www.w3.org/1999/xlink" ><defs><style type="text/css"></style></defs><path d="M512 1022.72c-23.296 0-46.784-1.6-69.952-4.8a72.832 72.832 0 0 1-59.648-51.264 169.792 169.792 0 0 0-199.488-115.52 73.6 73.6 0 0 1-73.984-25.92A507.52 507.52 0 0 1 38.592 704a73.344 73.344 0 0 1 14.4-77.312 169.984 169.984 0 0 0 0-230.528 73.728 73.728 0 0 1-14.4-77.504 508.8 508.8 0 0 1 70.336-121.152 73.792 73.792 0 0 1 73.984-25.92 171.648 171.648 0 0 0 122.112-18.688A169.152 169.152 0 0 0 382.336 56.128c8.704-27.712 31.488-47.424 59.648-51.264a508.032 508.032 0 0 1 140.032 0c28.096 3.84 51.008 23.552 59.648 51.264a169.6 169.6 0 0 0 77.312 96.768 170.752 170.752 0 0 0 122.24 18.688c27.456-6.144 56.704 4.032 73.856 25.984a509.504 509.504 0 0 1 70.4 121.088c10.56 25.92 4.992 56.32-14.528 77.44a170.048 170.048 0 0 0 0 230.528c19.52 21.12 25.088 51.52 14.528 77.568a507.392 507.392 0 0 1-70.4 121.088 73.792 73.792 0 0 1-73.856 25.984 171.072 171.072 0 0 0-122.24 18.624 169.6 169.6 0 0 0-77.312 96.832c-8.64 27.712-31.488 47.36-59.648 51.264-23.232 3.136-46.72 4.736-70.016 4.736z m-291.904-224.256a218.688 218.688 0 0 1 208.768 153.664 24.32 24.32 0 0 0 19.84 17.536 461.248 461.248 0 0 0 126.656 0 24.32 24.32 0 0 0 19.712-17.536 219.2 219.2 0 0 1 256.64-148.416c9.408 1.92 19.392-1.28 25.024-8.448a456.32 456.32 0 0 0 63.552-109.568 24.32 24.32 0 0 0-4.992-26.048c-37.44-40.512-57.984-93.184-57.984-148.224s20.544-107.712 57.984-148.224a24.768 24.768 0 0 0 5.184-26.048 461.824 461.824 0 0 0-63.744-109.504 24.832 24.832 0 0 0-25.024-8.448 219.904 219.904 0 0 1-157.056-24.064 218.56 218.56 0 0 1-99.584-124.48 24.32 24.32 0 0 0-19.776-17.536 466.304 466.304 0 0 0-126.656 0 24.448 24.448 0 0 0-19.776 17.472 218.24 218.24 0 0 1-99.52 124.48 220.48 220.48 0 0 1-157.056 24.064 24.64 24.64 0 0 0-25.024 8.384 460.8 460.8 0 0 0-63.616 109.568 24.64 24.64 0 0 0 5.184 26.112c37.312 40.512 57.856 93.12 57.856 148.16s-20.608 107.776-57.92 148.224a24.768 24.768 0 0 0-5.248 26.048c16 39.04 37.376 75.904 63.68 109.568a24.768 24.768 0 0 0 25.024 8.384c15.744-3.456 31.808-5.12 47.872-5.12z"  p-id="3668"></path><path d="M512 706.176A195.008 195.008 0 0 1 317.184 511.36 195.008 195.008 0 0 1 512 316.608a195.008 195.008 0 0 1 194.816 194.752A195.008 195.008 0 0 1 512 706.176z m0-340.864a146.24 146.24 0 0 0-146.112 146.112A146.24 146.24 0 0 0 512 657.536a146.304 146.304 0 0 0 146.176-146.112A146.368 146.368 0 0 0 512 365.312z"  p-id="3669"></path></svg>